<svg width="412" height="401" viewBox="0 0 412 401" fill="none" xmlns="http://www.w3.org/2000/svg">
<g opacity="0.1">
<path d="M205.477 85.3709L350.305 330.159C355.928 339.664 352.763 351.928 343.242 357.528L277.413 396.237C267.821 401.877 255.468 398.59 249.951 388.928L207.683 314.915L165.944 389.905C160.552 399.593 148.298 403.032 138.652 397.565L72.6429 360.159C63.0503 354.724 59.6808 342.542 65.1189 332.951L205.477 85.3709Z" fill="#7A7A7A"/>
<path d="M305.915 256.702L21.455 259.704C10.4093 259.822 1.36822 250.948 1.27821 239.905L0.661701 163.555C0.574128 152.429 9.59558 143.379 20.7239 143.431L105.971 143.843L61.8808 70.2097C56.1855 60.6979 59.333 48.3678 68.8929 42.7495L134.3 4.30188C143.805 -1.28597 156.041 1.88773 161.63 11.3906L305.915 256.702Z" fill="#7A7A7A"/>
<path d="M106.686 258.9L246.318 11.1112C251.741 1.49003 263.946 -1.90252 273.558 3.54141L340.004 41.1824C349.685 46.6668 353.014 59.0056 347.404 68.6137L304.424 142.217L390.253 140.858C401.341 140.683 410.447 149.574 410.535 160.66L411.135 236.513C411.222 247.537 402.355 256.544 391.329 256.632L106.686 258.9Z" fill="#7A7A7A"/>
</g>
</svg>
